<svg height="384pt" viewBox="0 0 384 384" width="384pt" xmlns="http://www.w3.org/2000/svg"><path d="m302.625 192c0 61.855469-50.144531 112-112 112s-112-50.144531-112-112 50.144531-112 112-112 112 50.144531 112 112zm0 0" fill="#cce4ff"/><g fill="#007aff"><path d="m192 0c-105.871094 0-192 86.136719-192 192s86.128906 192 192 192 192-86.136719 192-192-86.128906-192-192-192zm0 352c-88.222656 0-160-71.777344-160-160s71.777344-160 160-160 160 71.777344 160 160-71.777344 160-160 160zm0 0"/><path d="m192 64c-70.574219 0-128 57.425781-128 128s57.425781 128 128 128 128-57.425781 128-128-57.425781-128-128-128zm0 224c-52.9375 0-96-43.0625-96-96s43.0625-96 96-96 96 43.0625 96 96-43.0625 96-96 96zm0 0"/><path d="m176 193.375-16-16-22.632812 22.625 38.632812 38.625 70.625-70.625-22.625-22.625zm0 0"/></g></svg>